<svg version="1.1" id="Layer_1" xmlns="http://www.w3.org/2000/svg" xmlns:xlink="http://www.w3.org/1999/xlink" x="0" y="0" viewBox="0 0 960 238" xml:space="preserve" enable-background="new 0 0 960 238"><style type="text/css">.st0{fill:#231f20}.st1{fill:none}</style><g><path class="st0" d="M90.5,64.3C89,45.5,79,40.1,70.6,40.1c-12.1,0-18.8,7.9-18.8,21.5c0,37.2,76.3,55.1,76.3,114.4 c0,36-24.2,56-59.3,56c-34.8,0-54.8-27.8-56.3-60.5l35.7-5.1c1.5,22.1,10.3,33,22.4,33c13,0,21.8-7,21.8-20 c0-43.3-76.3-54.8-76.3-117.4C16.1,27,37.3,7.4,74.2,7.4c30.6,0,48.7,22.1,52.1,53L90.5,64.3z"/><path class="st0" d="M149,228.9V10.4h53.9c46.3,0,67.8,17.9,67.8,64.5s-21.5,64.5-67.8,64.5h-16.3v89.6H149z M186.5,108.5H201 c24.5,0,32.1-7.6,32.1-33.6s-7.6-33.6-32.1-33.6h-14.5V108.5z"/><path class="st0" d="M290.9,228.9V10.4h37.5v185.8h59v32.7H290.9z"/><path class="st0" d="M408,228.9V10.4h37.5v218.5H408z"/><path class="st0" d="M501.3,43.1h-36.3V10.4h110.2v32.7h-36.3v185.8h-37.5V43.1z"/><path class="st0" d="M658.1,64.3c-1.5-18.8-11.5-24.2-20-24.2c-12.1,0-18.8,7.9-18.8,21.5c0,37.2,76.3,55.1,76.3,114.4 c0,36-24.2,56-59.3,56c-34.8,0-54.8-27.8-56.3-60.5l35.7-5.1c1.5,22.1,10.3,33,22.4,33c13,0,21.8-7,21.8-20 c0-43.3-76.3-54.8-76.3-117.4c0-34.8,21.2-54.5,58.1-54.5c30.6,0,48.7,22.1,52.1,53L658.1,64.3z"/><path class="st0" d="M747.3,165.7v17.6c0,11.8,6.7,19.1,16.6,19.1c11.8,0,18.5-7,18.5-26.6V126c0-14.2-7.3-20-15.7-20 c-11.5,0-17,7.6-20.3,16.6h-29.1c1.2-33.9,2.7-60.5,2.7-112.3h91.1L810,41.3h-59l-2.1,47.2l0.6,0.6c9.4-11.2,17.3-12.7,28.8-12.7 c28.8,0,40,20.9,40,57.5v30.3c0,46-14.5,67.8-50.8,67.8c-30.3,0-53.9-13.3-53.9-49.6v-16.6H747.3z"/><path class="st0" d="M876.3,170.2v11.2c0,14.2,4.8,20.9,16,20.9c11.2,0,17.6-6.7,17.6-20.9v-51.2c-9.7,9.7-15.7,14.5-30.9,14.5 c-21.8,0-40-12.7-40-44.8V74c0-46,15.7-66.6,53.3-66.6c37.5,0,53.3,18.8,53.3,59.9V172c0,41.2-15.7,59.9-53.3,59.9 c-29.7,0.6-48.7-20.6-48.7-48.4v-13.3H876.3z M909.9,57.9c0-14.2-6.4-20.9-17.6-20.9c-11.2,0-17.6,6.7-17.6,20.9v36.3 c0,14.2,6.4,20.9,15.7,20.9c6.7,0,14.8-6.4,19.4-10V57.9z"/></g><polygon class="st1" points="397,61 402,61 402,61 397,61"/></svg>