<svg version="1.1" id="Layer_1" xmlns:cc="http://creativecommons.org/ns#" xmlns:dc="http://purl.org/dc/elements/1.1/" xmlns:rdf="http://www.w3.org/1999/02/22-rdf-syntax-ns#" xmlns:svg="http://www.w3.org/2000/svg" xmlns="http://www.w3.org/2000/svg" xmlns:xlink="http://www.w3.org/1999/xlink" x="0" y="0" viewBox="0 0 36 37.5" xml:space="preserve" enable-background="new 0 0 36 37.5"><g><path d="M6.5,1020.3c-0.3,0-0.6,0.3-0.6,0.6v11.5c0,0.5-0.3,1.7-1,2.6c-0.6,1-1.5,1.7-2.4,1.9c-0.3,0.1-0.5,0.4-0.5,0.7l0.9,7h30.3 l0.9-7c0-0.3-0.1-0.6-0.4-0.7c-0.8-0.3-1.7-1.1-2.4-2c-0.7-0.9-1.1-2.1-1.1-2.5v-11.5c0-0.3-0.3-0.6-0.6-0.6H27 c-0.3,0-0.6,0.3-0.6,0.6c0,3.9,0,7.7-0.8,10.5c-0.4,1.4-0.9,2.4-1.7,3.2s-1.8,1.1-3.3,1.1h-5.1c-1.4,0-2.4-0.4-3.2-1.1 c-0.8-0.7-1.4-1.8-1.8-3.2c-0.8-2.7-0.8-6.6-0.8-10.4c0-0.3-0.3-0.6-0.6-0.6C9,1020.3,6.5,1020.3,6.5,1020.3z M3,1045.9l0.2,2 c0,0.3,0.3,0.6,0.6,0.6h28.2c0.3,0,0.6-0.3,0.6-0.6l0.2-2C33,1045.9,3,1045.9,3,1045.9z" transform="translate(0,-1016.3622)"/></g></svg>