<svg version="1.1" id="Layer_1" xmlns:cc="http://creativecommons.org/ns#" xmlns:dc="http://purl.org/dc/elements/1.1/" xmlns:rdf="http://www.w3.org/1999/02/22-rdf-syntax-ns#" xmlns:svg="http://www.w3.org/2000/svg" xmlns="http://www.w3.org/2000/svg" xmlns:xlink="http://www.w3.org/1999/xlink" x="0" y="0" viewBox="0 0 100 96" xml:space="preserve" enable-background="new 0 0 100 96"><g><path d="M50,965.4c-2.5,0-5,0.2-7,0.7c-0.5,0.2-2.6,1.3-4,2c-0.5,4.4,0.8,7.5,4.3,9.3c2.3,1.2,5.2,1.9,6.7,1.9s4.3-0.7,6.7-1.9 c4.4-2.3,4.3-4.9,4.3-9.3c-1.4-0.7-3.6-1.8-4-2C55,965.6,52.5,965.4,50,965.4z M46,969.4h8v4h-8V969.4z M35.1,970.1 c-4.4,2.2-9.3,4.7-12,6.2c-11.9,18-9.9,39-9.9,59H22c0-11.4,1.4-17,4.1-25.2c0.6,7.9,1,15.4,1,20.1c0,1.7,1.5,2.8,3.3,3.1l14.7,2 c1,0,3-1,3-2v-50.1c-2.1-0.3-4.4-1.1-6.6-2.2C36.3,977.8,35.1,975.5,35.1,970.1L35.1,970.1z M65,970.1c0.6,4.9-2.7,8.8-6.5,10.8 c-2.2,1.1-4.5,1.9-6.5,2.2c0.1,18.4-0.1,36.8-0.1,55.1c0,0.5,0.5,1,1,1c0.5,0,1-0.5,1-1v-3.2c0.4,0.2,0.8,0.2,1.1,0.2l14.7-2 c1.8-0.3,3.3-1.4,3.3-3.1c0-6.3,0.3-13.4,0.8-20.3c2.7,8.3,4.2,13.9,4.2,25.4h8.9c0-20,1.9-41-10-59C72.9,974.2,68.7,972,65,970.1 L65,970.1z" transform="translate(0,-952.36218)"/></g></svg>