<svg version="1.1" id="Layer_1" xmlns="http://www.w3.org/2000/svg" xmlns:xlink="http://www.w3.org/1999/xlink" x="0" y="0" viewBox="0 0 30 30" xml:space="preserve" enable-background="new 0 0 30 30"><g><g><path d="M285,86c1.9,0,2.6-2.1,2.9-3.6c-0.8,0.8-1.8,1.6-2.9,1.6s-2.1-0.8-2.9-1.6C282.4,83.9,283.1,86,285,86z" transform="translate(-270 -80)"/><path d="M294,91c-4-2-3-10-3-10h-1h-1c0,0,0,6-4,6s-4-6-4-6h-1h-1c0,0,1,8-3,10c0,0,1,8,0,16c0,0,3,1,9,1s9-1,9-1 C293,99,294,91,294,91z" transform="translate(-270 -80)"/></g></g></svg>