<?xml version="1.0" encoding="utf-8"?>
<!-- Generator: Adobe Illustrator 22.0.0, SVG Export Plug-In . SVG Version: 6.00 Build 0)  -->
<svg version="1.1" id="Layer_1" xmlns="http://www.w3.org/2000/svg" xmlns:xlink="http://www.w3.org/1999/xlink" x="0px" y="0px"
	 viewBox="0 0 78 79.5" style="enable-background:new 0 0 78 79.5;" xml:space="preserve">
<path d="M28.5,3c0,0-2.2,9.8,0,24.8s1.9,24,2.2,27.7c0.3,3.7,0.9,7,1.5,13.4s0.6,7.5,0.6,7.5s1.2,0.5,2.3,0.5s2.2-0.8,2.2-0.8v-22
	c0,0,0.4-17.1,0.5-20.3s0.7-9.7,0.8-11.3c0.2-1.7,1.5-5.2,2,1.6s0.4,25,0.4,25v27.2c0,0,1,0.6,2.2,0.6c1.5,0,2.1-0.6,2.1-0.6
	s0.5-5.2,0.8-7.9c0.3-3.1,1.5-9.8,1.4-12.7c-0.1-3,2-20.8,2.5-24.5c0.4-2.7,0.7-5.3,1.4-10.5c0.5-3.5,0.6-7.2,0.6-10.9
	C52,7.5,51.1,3,51.1,3S42.6,6.2,28.5,3z"/>
</svg>
